<svg width="97" height="81" viewBox="0 0 97 81" fill="none" xmlns="http://www.w3.org/2000/svg">
<path d="M6.36846 46.7538C5.09713 27.8197 17.2686 8.69847 35.8175 3.20553C53.8246 -2.14177 74.02 6.32655 83.753 22.1604C84.2948 23.0551 86.1914 22.1603 85.5662 21.2032C80.4349 12.9873 72.7876 6.64153 63.7585 3.10717C54.7295 -0.427187 44.7998 -0.961817 35.4424 1.58262C16.164 7.30443 3.05468 27.0083 4.3677 46.8578C4.3677 48.023 6.45185 47.8149 6.45185 46.7538H6.36846Z" fill="#E2D6D6"/>
<path d="M4.57604 48.3975C34.5316 47.9154 63.7878 39.2828 89.1925 23.4295C89.3032 23.3672 89.4001 23.2831 89.4772 23.1822C89.5543 23.0814 89.6101 22.9659 89.6412 22.8429C89.6723 22.7199 89.6779 22.5918 89.6579 22.4666C89.6379 22.3413 89.5926 22.2214 89.5247 22.1141C89.4569 22.0068 89.3679 21.9145 89.2631 21.8426C89.1584 21.7707 89.0402 21.7208 88.9156 21.6959C88.7909 21.671 88.6625 21.6717 88.5382 21.6979C88.4138 21.7241 88.2961 21.7752 88.1922 21.8482C63.1307 37.5521 34.2444 46.1143 4.65943 46.6081C3.36726 46.6081 3.22136 48.5015 4.65943 48.4807L4.57604 48.3975Z" fill="#E2D6D6"/>
<path d="M10.766 71.9089C24.1446 70.7136 37.394 68.3606 50.3648 64.8764C63.2657 61.36 75.1037 55.9087 87.5461 51.2272C88.3764 50.8377 89.2513 50.5512 90.1513 50.3741L94.3196 56.2C94.1737 58.4471 88.5465 59.8411 86.7749 60.3613C83.5445 61.3808 80.2307 62.2339 76.9795 63.191L33.8167 75.675C30.7738 76.5489 27.7101 77.6308 24.6048 78.2758C19.6653 79.2953 9.74478 78.6087 11.9748 70.6606C12.35 69.3914 10.3283 68.8712 9.89067 70.1404C8.39008 75.4877 12.5584 79.9611 17.7479 80.7934C25.3967 82.021 34.9213 77.4643 42.1116 75.3837L73.4989 66.3536C78.0632 65.022 82.6692 63.7736 87.2126 62.3795C90.2048 61.8098 92.9731 60.4026 95.1949 58.3222C98.1127 54.9724 97.6126 49.3962 92.819 48.3143C90.186 48.0836 87.5455 48.6646 85.2535 49.9788C80.0848 52.1843 74.9786 54.5147 69.7057 56.4913C50.7482 63.5705 30.9246 68.0773 10.766 69.8908C9.45296 69.9948 9.39044 71.9714 10.766 71.9714V71.9089Z" fill="#E2D6D6"/>
<path d="M0.261923 49.6251C-2.09317 60.4029 12.0791 64.3146 16.9351 55.0972L15.0385 55.4093C16.3135 57.0873 18.0455 58.3633 20.0276 59.0846C22.0097 59.8059 24.158 59.942 26.2155 59.4768C28.2731 59.0115 30.1529 57.9646 31.6302 56.461C33.1075 54.9575 34.1198 53.061 34.5462 50.9983L32.6496 51.2896C33.5251 53.0427 35.0138 54.4148 36.834 55.1463C38.6543 55.8778 40.6799 55.9181 42.5279 55.2596C44.3759 54.6011 45.9181 53.2894 46.863 51.5725C47.8078 49.8557 48.0898 47.8527 47.6555 45.9423L45.5713 46.4625C46.1235 48.5392 47.4366 50.3331 49.2507 51.4891C51.0648 52.6451 53.2476 53.0789 55.3668 52.7045C60.744 51.7682 63.5159 46.4625 63.3075 41.3441L61.2233 41.4481C61.208 42.8785 61.512 44.2943 62.1132 45.5927C62.7144 46.8912 63.5976 48.0396 64.6988 48.9547C65.8001 49.8699 67.0916 50.5287 68.4797 50.8834C69.8678 51.2381 71.3176 51.2797 72.7238 51.0052C74.1301 50.7308 75.4574 50.1471 76.6095 49.2967C77.7616 48.4462 78.7095 47.3503 79.3844 46.0884C80.0594 44.8266 80.4443 43.4307 80.5114 42.0018C80.5784 40.5729 80.326 39.1471 79.7722 37.8278C79.4388 36.9331 77.6881 37.162 77.6881 38.1607C77.6881 44.5483 85.2327 47.4404 90.193 43.7368C97.4458 38.1815 93.4651 28.5688 88.7758 22.9302C88.1088 22.098 86.2122 22.9302 86.9625 23.8665C89.7851 26.7732 91.5783 30.5216 92.0687 34.5403C92.2373 35.9052 92.0712 37.2906 91.5847 38.5773C91.0983 39.864 90.306 41.0134 89.2759 41.9267C85.6287 44.9644 79.7722 43.3623 79.8348 38.0566L77.7506 38.3687C78.8135 41.4065 78.3342 45.9631 75.2913 47.9189C74.1066 48.6465 72.7499 49.0479 71.3594 49.0824C69.9688 49.1169 68.594 48.7832 67.3745 48.1153C66.155 47.4474 65.1343 46.4691 64.4163 45.2797C63.6983 44.0904 63.3085 42.7326 63.2866 41.3441C63.2866 40.1997 61.2024 40.3662 61.2024 41.4481C61.3764 42.9664 61.1811 44.5043 60.6333 45.9313C60.0855 47.3583 59.2012 48.6325 58.0554 49.6459C57.1866 50.339 56.1562 50.8012 55.0602 50.9894C53.9641 51.1776 52.8382 51.0857 51.7874 50.7221C50.7366 50.3586 49.795 49.7353 49.0507 48.9104C48.3063 48.0855 47.7833 47.0859 47.5304 46.0048C47.2386 44.9228 45.3212 45.443 45.4463 46.5249C46.134 50.4782 44.7168 51.9554 40.9236 52.8709C37.5056 53.7032 36.0259 53.5783 34.2544 50.3949C34.1279 50.2537 33.9677 50.1468 33.7887 50.084C33.6097 50.0212 33.4177 50.0046 33.2305 50.0357C33.0434 50.0669 32.8671 50.1447 32.7181 50.2621C32.5692 50.3795 32.4525 50.5325 32.3787 50.7071C32.0885 52.4016 31.3076 53.9742 30.1324 55.2308C28.9572 56.4873 27.439 57.3727 25.7655 57.7777C24.0919 58.1827 22.3362 58.0894 20.7151 57.5095C19.094 56.9297 17.6784 55.8885 16.6433 54.5146C16.5157 54.3778 16.3564 54.2742 16.1795 54.213C16.0025 54.1518 15.8132 54.1348 15.6281 54.1636C15.443 54.1923 15.2678 54.2659 15.1178 54.3779C14.9678 54.4899 14.8475 54.6369 14.7676 54.806C10.37 63.1286 0.428622 57.3028 2.11678 49.6043C2.36688 48.5016 0.282731 48.6472 0.0326334 49.6043L0.261923 49.6251Z" fill="#E2D6D6"/>
<path d="M11.1203 69.0793C10.0782 60.9647 21.3952 65.1676 24.5214 65.563C26.5785 65.9385 28.7006 65.7071 30.6279 64.8971C31.7831 64.2964 32.8153 63.4848 33.6708 62.5044C34.4003 61.7345 34.9422 60.7358 35.755 60.0076C38.0022 58.0369 40.9395 57.0345 43.9248 57.2195C45.8739 57.4733 47.8453 57.5082 49.8021 57.3235C53.5713 56.4218 57.2928 55.3316 60.9524 54.0569C68.3649 51.9645 75.9236 50.4275 83.5654 49.4586C84.7742 49.313 85.0451 47.586 83.6904 47.7525C75.226 48.8145 66.8619 50.5611 58.6806 52.975C56.2005 53.7032 53.7621 54.6811 51.2611 55.2845C48.5379 55.7636 45.7518 55.7636 43.0287 55.2845C40.9134 54.8558 38.7139 55.2502 36.8804 56.3872C34.1293 58.2598 32.9622 61.0271 29.9193 62.6292C25.3134 65.1676 21.687 62.4003 16.8517 62.3587C12.5167 62.3587 8.51513 64.9388 9.16122 69.5994C9.30711 70.6814 11.2454 70.1612 11.2454 69.0584L11.1203 69.0793Z" fill="#E2D6D6"/>
<path d="M14.4549 37.3908C15.7454 32.6948 18.0427 28.3349 21.1879 24.6129C24.3331 20.891 28.251 17.896 32.6704 15.8352C33.9 15.2526 32.8163 13.7546 31.6908 14.2955C27.0395 16.4715 22.9153 19.6272 19.6018 23.5457C16.2884 27.4643 13.8641 32.0527 12.4958 36.9955C12.1415 38.2231 14.1423 38.4936 14.4549 37.3908Z" fill="#E2D6D6"/>
<path d="M40.5902 10.1966L48.1974 11.0912C49.3853 11.2369 50.1356 9.44753 48.8017 9.28107L41.1946 8.38634C40.0066 8.24069 39.2563 10.0301 40.5902 10.1966Z" fill="#E2D6D6"/>
</svg>
