<svg width="72" height="93" viewBox="0 0 72 93" fill="none" xmlns="http://www.w3.org/2000/svg">
<path d="M7.97625 43.1003L19.6458 68.2039C22.9362 75.2427 25.5726 83.7056 29.8644 90.1137C32.9095 94.5486 37.5078 92.8194 41.9835 91.7819L68.5517 85.5365C68.7565 85.4926 68.9427 85.3871 69.0853 85.2342C69.2279 85.0814 69.3199 84.8886 69.3488 84.6821C69.3488 65.5186 69.3488 46.3416 69.3488 27.1511C69.3488 25.9915 67.3051 26.1543 67.3051 27.1511V62.8536C67.6423 68.8027 67.6423 74.766 67.3051 80.7151C66.8554 84.6617 65.2612 84.4786 61.4395 85.3737L52.8764 87.4081C47.1949 88.7304 40.2463 91.7412 34.6466 90.0324C31.4993 89.0762 31.6219 89.2797 30.5592 86.9402C29.9665 85.7603 29.4351 84.5396 28.8833 83.3597C27.6366 80.6541 26.3901 77.9687 25.123 75.2224C20.0001 64.1556 14.8568 53.0888 9.69301 42.0221C9.2434 41.0456 7.42439 41.9 7.91487 42.9782L7.97625 43.1003Z" fill="#E2D6D6"/>
<path d="M7.42435 44.036C8.5086 45.714 10.0647 47.0375 11.8988 47.8418C13.733 48.6462 15.7643 48.8958 17.7399 48.5598C19.7155 48.2237 21.5482 47.3167 23.01 45.9517C24.4717 44.5867 25.4978 42.824 25.9608 40.8828L24.101 41.1473C29.2103 48.9184 38.2026 43.3444 40.655 36.57L38.7953 36.8345C39.5534 38.3681 40.8145 39.5983 42.3703 40.3216C43.926 41.045 45.6833 41.2181 47.3513 40.8125C49.0194 40.4069 50.4985 39.4468 51.544 38.0909C52.5895 36.735 53.1388 35.0646 53.1012 33.3558L51.1801 33.8644C56.9638 42.5917 66.0787 33.6609 69.5735 28.0258C70.2888 26.9069 68.4902 25.9915 67.8363 27.1104C65.159 31.3418 57.8425 40.3539 52.8968 32.8675C52.769 32.7002 52.5941 32.5745 52.3942 32.5065C52.1944 32.4386 51.9787 32.4314 51.7748 32.486C51.5708 32.5406 51.3878 32.6544 51.2491 32.8129C51.1104 32.9715 51.0224 33.1675 50.9961 33.3761C51.138 34.6987 50.7894 36.0272 50.0158 37.1116C49.2422 38.1961 48.097 38.9616 46.7958 39.2641C45.4947 39.5667 44.1274 39.3854 42.9512 38.7543C41.775 38.1232 40.8712 37.0859 40.4098 35.8377C40.0215 35.0443 38.7953 35.3901 38.5501 36.1021C36.7107 41.1269 29.9256 46.579 25.7155 40.1708C25.5992 40.0161 25.4433 39.8954 25.2641 39.8213C25.0849 39.7471 24.889 39.7223 24.6968 39.7493C24.5046 39.7763 24.3233 39.8543 24.1718 39.9749C24.0202 40.0956 23.904 40.2546 23.8354 40.4353C23.4732 41.9868 22.6616 43.3985 21.501 44.4952C20.3405 45.5919 18.882 46.3254 17.3066 46.6049C15.7312 46.8843 14.1081 46.6973 12.6384 46.0671C11.1687 45.4369 9.91718 44.3911 9.03895 43.0596C8.32366 42.0831 6.52521 43.0596 7.26094 44.0564L7.42435 44.036Z" fill="#E2D6D6"/>
<path d="M6.13691 44.1581C-2.85539 37.16 4.76761 25.4829 10.4696 19.1765C16.2745 12.8139 23.5284 7.93041 31.622 4.93612C40.2464 1.74221 50.4649 0.58264 58.9463 4.93612C67.1211 9.00479 72.0873 18.322 69.1648 27.1917C68.7561 28.4123 70.7385 28.7989 71.1064 27.6596C72.3766 23.5256 72.2907 19.0961 70.8613 15.0139C69.4318 10.9317 66.7329 7.40886 63.1563 4.95646C54.0005 -1.77718 41.2478 -0.821047 31.111 2.92213C21.314 6.53952 12.7276 12.8106 6.3209 21.0277C0.945951 27.9241 -3.89762 38.8688 4.6655 45.4397C5.6056 46.1721 7.11799 44.8498 6.11657 44.0564L6.13691 44.1581Z" fill="#E2D6D6"/>
<path d="M41.9426 51.7462C45.5157 61.7974 48.444 72.0643 50.71 82.485C50.9757 83.6852 52.9581 83.1563 52.7537 81.9561C50.4662 71.5408 47.5382 61.2752 43.9863 51.2172C43.5775 50.0577 41.5952 50.5866 41.9426 51.7462Z" fill="#E2D6D6"/>
<path d="M57.4135 47.0265C58.4894 56.6584 58.9944 66.3451 58.9258 76.0361C58.9258 76.3059 59.0335 76.5646 59.2251 76.7554C59.4168 76.9461 59.6766 77.0533 59.9476 77.0533C60.2186 77.0533 60.4786 76.9461 60.6702 76.7554C60.8619 76.5646 60.9695 76.3059 60.9695 76.0361C61.0312 66.3447 60.5194 56.658 59.4367 47.0265C59.2936 45.7652 57.2704 45.7856 57.393 47.0265H57.4135Z" fill="#E2D6D6"/>
<path d="M24.7959 58.3171C31.3618 65.2812 36.8388 73.1882 41.0434 81.773C41.5748 82.8105 43.3732 81.895 42.8214 80.7965C38.5302 72.077 32.9503 64.0471 26.2675 56.9744C25.4704 56.12 23.9376 57.3813 24.7959 58.3171Z" fill="#E2D6D6"/>
<path d="M49.1569 9.83888C48.839 9.57843 48.4707 9.38581 48.0749 9.27295C47.6791 9.16009 47.2643 9.12941 46.8561 9.18282C46.4479 9.23624 46.0551 9.3726 45.702 9.58344C45.349 9.79429 45.0432 10.0751 44.8038 10.4085C44.3244 11.1979 44.1716 12.1417 44.3774 13.041C44.5833 13.9404 45.1317 14.7251 45.9073 15.2299C46.2558 15.4821 46.651 15.6633 47.07 15.763C47.4891 15.8628 47.9238 15.8791 48.3492 15.811C48.7746 15.7429 49.1824 15.5919 49.5489 15.3665C49.9155 15.141 50.2337 14.8457 50.4852 14.4975C50.7386 14.114 50.9128 13.6841 50.9976 13.2329C51.0824 12.7817 51.0762 12.3182 50.9792 11.8694C50.8822 11.4206 50.6963 10.9956 50.4326 10.619C50.1688 10.2424 49.8324 9.92193 49.4429 9.67613C48.5028 9.04549 46.9496 10.3068 47.9715 10.9985C48.3556 11.1991 48.6656 11.5162 48.8566 11.9039C49.0477 12.2915 49.11 12.7297 49.0343 13.1548C49.001 13.3246 48.928 13.4842 48.8211 13.6205C48.7142 13.7569 48.5764 13.8662 48.4191 13.9395C48.2617 14.0129 48.0892 14.0482 47.9155 14.0427C47.7418 14.0371 47.5719 13.9908 47.4197 13.9076C47.0694 13.7368 46.7755 13.4699 46.5727 13.1382C46.3699 12.8066 46.2667 12.4241 46.2752 12.036C46.2752 11.3036 47.0109 10.5712 47.6853 11.1612C48.3598 11.7512 50.1174 10.673 49.1569 9.83888Z" fill="#E2D6D6"/>
<path d="M55.9828 18.9934C54.2865 17.2845 51.7728 18.9934 51.8954 21.1701C52.1019 22.434 52.7025 23.6011 53.6122 24.5064C53.9796 25.0452 54.4537 25.5035 55.0055 25.8533C55.5572 26.2031 56.175 26.4371 56.8208 26.5408C62.8088 27.09 60.4585 15.8605 56.228 18.261C55.0836 18.912 56.228 20.4988 57.2294 19.8682C57.8425 19.5223 58.4148 22.3094 58.4353 22.6145C58.4353 23.4893 58.1287 24.7912 56.9842 24.6488C55.8397 24.5064 55.2471 23.3469 54.7157 22.6145C54.4843 22.3106 54.2857 21.9833 54.1231 21.638C54.1231 21.4753 53.7961 19.6037 54.5114 20.2954C55.2267 20.987 56.8616 19.8478 55.9623 18.9324L55.9828 18.9934Z" fill="#E2D6D6"/>
<path d="M27.5957 21.2312C27.228 21.5707 26.9542 21.9988 26.8008 22.4741C26.6473 22.9495 26.6194 23.4562 26.7197 23.9454C26.8199 24.4346 27.045 24.8899 27.3732 25.2675C27.7014 25.6451 28.1218 25.9322 28.5938 26.1013C29.0657 26.2703 29.5734 26.3156 30.068 26.2328C30.5627 26.15 31.0277 25.9418 31.4181 25.6283C31.8085 25.3148 32.1113 24.9066 32.2973 24.4429C32.4834 23.9792 32.5463 23.4756 32.4802 22.9807C32.3179 22.2352 31.8827 21.5766 31.2594 21.1328C30.6361 20.6891 29.8693 20.4921 29.1082 20.5802C27.882 20.7429 27.7389 22.6145 29.1082 22.4314C30.4775 22.2483 31.1518 24.0792 29.803 24.4657C28.4541 24.8523 28.3315 23.1231 29.0468 22.4314C29.7621 21.7397 28.5563 20.3971 27.6571 21.1701L27.5957 21.2312Z" fill="#E2D6D6"/>
<path d="M15.3335 29.3685C14.8357 29.1214 14.2925 28.978 13.7371 28.9472C13.1817 28.9163 12.6258 28.9987 12.1035 29.1891C11.5812 29.3796 11.1035 29.6741 10.6995 30.0548C10.2955 30.4354 9.97388 30.8941 9.75422 31.4028C9.3579 32.6465 9.38992 33.9863 9.84528 35.2097C10.3006 36.4332 11.1533 37.4704 12.2679 38.1568C12.7199 38.4813 13.2361 38.7063 13.7821 38.8167C14.3282 38.9272 14.8916 38.9206 15.4349 38.7974C15.9782 38.6742 16.489 38.4373 16.9331 38.1024C17.3773 37.7674 17.7446 37.3421 18.0107 36.8548C19.4413 34.3526 18.0108 31.6876 16.2532 29.7754C15.5583 29.0023 13.719 29.8771 14.4752 30.7315C15.4928 31.6845 16.2039 32.9163 16.5189 34.2712C16.7437 35.736 15.8649 37.6889 14.1073 37.0583C13.4398 36.736 12.8552 36.2659 12.3983 35.6842C11.9413 35.1024 11.6242 34.4242 11.471 33.7016C11.144 32.0538 12.2475 29.7754 14.2299 30.8942C15.17 31.4232 16.4372 29.9991 15.3132 29.3685H15.3335Z" fill="#E2D6D6"/>
<path d="M40.4712 26.1542C40.2245 26.8384 40.194 27.5814 40.384 28.2833C40.574 28.9852 40.9752 29.6123 41.5339 30.0805C42.0478 30.4851 42.6922 30.6896 43.3465 30.6559C44.0009 30.6222 44.6206 30.3526 45.0899 29.8974C45.5473 29.4531 45.8422 28.8692 45.9274 28.2387C46.0126 27.6082 45.8832 26.9675 45.56 26.4187C45.1799 25.8719 44.6433 25.4515 44.0201 25.2121C43.3969 24.9727 42.7158 24.9253 42.0652 25.076C40.7777 25.3202 41.2886 27.1104 42.5557 26.9476C43.4141 26.7849 44.5995 27.802 43.6594 28.5344C43.5881 28.5995 43.5031 28.6481 43.4107 28.6766C43.3182 28.705 43.2206 28.7127 43.1248 28.6991C43.029 28.6855 42.9374 28.6509 42.8567 28.5978C42.776 28.5447 42.708 28.4744 42.6579 28.392C42.4719 28.1445 42.3535 27.8533 42.3141 27.5467C42.2747 27.2401 42.3157 26.9286 42.4331 26.6425C42.7805 25.4015 40.7981 24.954 40.3894 26.1542H40.4712Z" fill="#E2D6D6"/>
<path d="M30.3343 8.3945C26.39 7.66214 25.9404 13.6838 29.4965 14.4975C30.2197 14.6704 30.981 14.5811 31.644 14.2455C32.3069 13.91 32.8281 13.3502 33.1138 12.6666C33.2207 12.3199 33.2513 11.9543 33.2034 11.5948C33.1556 11.2353 33.0303 10.8902 32.8363 10.5832C32.6424 10.2762 32.3842 10.0145 32.0794 9.81581C31.7746 9.61715 31.4303 9.48623 31.07 9.432C29.8847 9.2896 29.1694 11.0391 30.4774 11.2019C30.5932 11.2082 30.7061 11.2396 30.8085 11.2939C30.9108 11.3482 31 11.424 31.0698 11.5162C31.1396 11.6083 31.1885 11.7145 31.2129 11.8273C31.2372 11.9401 31.2366 12.0569 31.211 12.1695C31.1854 12.282 31.1353 12.3877 31.0644 12.479C30.9936 12.5703 30.9035 12.6452 30.8006 12.6983C30.6977 12.7515 30.5844 12.7816 30.4686 12.7867C30.3527 12.7918 30.2372 12.7716 30.13 12.7276C29.1286 12.4632 28.5563 9.92026 29.7825 10.144C31.0087 10.3678 31.6832 8.61828 30.3753 8.37416L30.3343 8.3945Z" fill="#E2D6D6"/>
</svg>
