<svg width="94" height="133" viewBox="0 0 94 133" fill="none" xmlns="http://www.w3.org/2000/svg">
<path d="M5.14555 125.021C3.51908 113.05 5.35049 100.864 10.4232 89.9033C12.6123 84.3887 16.1378 79.5066 20.6817 75.6978C22.4005 74.4931 24.3446 73.6488 26.3973 73.2154C28.45 72.7821 30.5688 72.7687 32.6268 73.176C34.6848 73.5833 36.6394 74.4029 38.3732 75.5856C40.107 76.7683 41.5844 78.2897 42.7165 80.0586C49.8084 89.9694 46.015 104.175 39.4179 113.326C34.2391 120.726 9.49955 141.374 3.36419 123.567C2.70447 121.651 -0.49515 122.477 0.0656086 124.426C5.40931 139.953 25.2009 131.033 33.9421 123.832C45.2233 114.35 53.7337 97.4026 47.6313 82.7015C46.4831 79.4962 44.5095 76.6517 41.9105 74.4559C39.3116 72.2602 36.1795 70.7912 32.8314 70.1976C29.4833 69.6041 26.038 69.9071 22.8444 71.076C19.6509 72.2449 16.8225 74.2382 14.6455 76.854C3.26538 90.0685 -0.264121 109.064 1.84697 125.88C2.11086 127.895 5.14555 127.003 5.14555 125.021Z" fill="#E2D6D6"/>
<path d="M9.99437 128.82C12.5013 118.645 20.2861 111.707 25.168 102.721C29.4883 94.6229 31.3568 85.4383 30.5447 76.2924C30.5447 74.3763 27.2461 74.6406 27.2461 76.2924C28.1186 87.458 24.945 98.5647 18.3069 107.578C13.6559 114.185 8.80701 120.065 6.82786 127.994C6.36606 129.943 9.53254 130.307 9.96136 128.589L9.99437 128.82Z" fill="#E2D6D6"/>
<path d="M57.4281 71.6013C54.7489 62.1592 55.0601 52.1173 58.3188 42.8598C62.1121 32.2882 76.8567 12.929 86.8844 29.6453C89.5234 34.3905 90.8142 39.769 90.6165 45.197C90.4187 50.625 88.7402 55.895 85.763 60.435C80.1884 68.7932 65.9715 77.8451 56.2737 71.5352C54.4924 70.412 52.8101 73.2201 54.5914 74.3763C65.2128 81.1818 80.0564 72.9888 86.9504 64.2672C95.2299 53.8278 96.8462 36.9463 88.4018 26.0443C79.9575 15.1424 68.6103 20.4612 61.7822 29.6122C57.3585 35.7308 54.3801 42.7756 53.0715 50.2153C51.763 57.655 52.1586 65.2951 54.2286 72.5593C54.3423 72.9974 54.625 73.3723 55.0148 73.6015C55.4045 73.8308 55.8693 73.8956 56.3067 73.7817C56.7441 73.6678 57.1183 73.3845 57.3472 72.9942C57.576 72.6039 57.6409 72.1385 57.5272 71.7004L57.4281 71.6013Z" fill="#E2D6D6"/>
<path d="M57.8899 76.7549C78.4401 69.553 68.3795 42.6946 82.4644 30.306C84.0807 28.8855 81.6398 27.2006 80.2214 28.456C66.8291 40.2499 75.3065 67.736 57.1313 74.112C55.1852 74.7727 55.8778 77.4156 57.8569 76.7549H57.8899Z" fill="#E2D6D6"/>
<path d="M28.1696 56.5698C23.6934 53.9338 19.8662 50.3235 16.9714 46.0061C14.0766 41.6886 12.1881 36.7746 11.4457 31.6274C8.90581 18.7103 15.2391 0.44122 31.4681 3.48055C44.3656 5.92523 50.1711 18.7433 47.9611 30.9006C45.751 43.058 37.1087 51.5152 27.3779 57.9573C27.0192 58.1763 26.7622 58.5291 26.6632 58.938C26.5642 59.3469 26.6315 59.7785 26.8502 60.1377C27.069 60.4969 27.421 60.7544 27.8293 60.8536C28.2376 60.9527 28.6685 60.8853 29.0272 60.6663C41.0011 52.7376 51.6554 41.1088 51.8203 25.9122C51.8203 13.3254 43.6729 1.46538 30.6435 0.110894C17.6141 -1.24359 8.41105 10.0218 7.55342 22.3112C6.49787 36.5168 13.6228 52.6054 26.4872 59.3118C28.2685 60.2698 30.0168 57.5609 28.1696 56.5698Z" fill="#E2D6D6"/>
<path d="M26.2894 4.17435C23.5846 11.8057 26.2894 18.1487 28.3675 25.5818C31.5269 36.16 30.98 47.5021 26.8173 57.7261C26.0586 59.6422 29.2583 60.2368 30.1159 58.4529C33.1657 51.0096 34.42 42.9509 33.7773 34.9311C32.8537 25.0202 26.0585 14.9111 29.621 4.93416C30.2807 2.98503 27.1141 2.35735 26.3224 4.17435H26.2894Z" fill="#E2D6D6"/>
</svg>
