<svg width="76" height="114" viewBox="0 0 76 114" fill="none" xmlns="http://www.w3.org/2000/svg">
<path d="M42.1804 88.036C38.6057 90.1147 34.5946 91.3425 30.4619 91.6232C26.3291 91.9039 22.1871 91.2297 18.3607 89.6536C14.5344 88.0775 11.1278 85.6423 8.40817 82.5391C5.68857 79.4359 3.72998 75.7491 2.68599 71.7679C-1.36114 55.673 6.92497 38.7119 12.9957 24.1762C14.4261 20.7113 15.8391 17.2463 17.0952 13.7813C17.6883 12.1527 18.2465 10.5242 18.8396 8.86099C19.2408 7.6136 19.7118 3.26504 20.5841 2.45077C22.3285 0.926175 28.5388 3.05713 30.7543 3.52491C35.0116 4.36486 39.177 5.61231 43.1922 7.24977C58.055 13.5387 68.8008 29.5123 72.9526 44.6543C75.6391 54.4429 74.5749 65.2017 67.4575 72.9113C60.8286 80.0838 51.3737 83.4968 42.3897 86.7712C41.3605 87.1351 41.7443 88.6597 42.791 88.2785C53.1705 84.571 64.3001 80.465 70.9814 71.1961C77.6626 61.9273 76.9997 49.4533 72.9177 39.1103C68.8357 28.7673 62.451 18.3204 53.6415 11.3904C44.1168 3.94071 31.9579 1.86172 20.3224 0.0252752C20.1029 -0.0269491 19.8718 0.00235098 19.6726 0.107662C19.4734 0.212974 19.3198 0.387026 19.2409 0.597001C14.2866 22.8596 -2.26828 43.9093 0.261174 67.5925C0.728691 72.3217 2.38594 76.8583 5.08052 80.7851C7.7751 84.7118 11.4205 87.9027 15.6816 90.0644C19.9426 92.226 24.6825 93.289 29.4654 93.1555C34.2482 93.0221 38.9205 91.6965 43.0526 89.3007C43.1408 89.2461 43.2173 89.1748 43.2778 89.0908C43.3382 89.0068 43.3814 88.9119 43.4049 88.8113C43.4284 88.7108 43.4318 88.6066 43.4147 88.5048C43.3977 88.403 43.3606 88.3055 43.3056 88.2179C43.2506 88.1303 43.1788 88.0543 43.0943 87.9943C43.0097 87.9342 42.9141 87.8913 42.8128 87.868C42.7116 87.8447 42.6067 87.8414 42.5042 87.8583C42.4017 87.8753 42.3035 87.9121 42.2153 87.9667L42.1804 88.036Z" fill="#E2D6D6"/>
<path d="M25.0673 84.2765C15.6298 77.693 7.27387 70.2952 7.23898 57.9599C7.23898 46.2829 13.3969 35.6627 16.1182 24.5401C16.3799 23.5006 14.7052 23.2234 14.3738 24.1762C11.3908 36.3037 4.34319 48.102 5.54686 60.9917C6.61098 72.2876 14.9495 79.2869 23.7241 85.4026C24.5265 85.9743 25.8523 84.8828 24.9801 84.2765H25.0673Z" fill="#E2D6D6"/>
<path d="M61.7881 69.7582C62.8173 56.5912 63.1488 42.8352 57.4619 30.5865C52.8042 20.59 44.1168 12.7591 32.9523 11.0439C32.0103 10.9053 31.295 12.274 32.4289 12.4473C44.2215 14.1798 52.8565 23.1887 57.0083 33.9475C61.4218 45.382 61.0031 57.8213 60.0611 69.8275C60.0611 70.7977 61.7183 70.6591 61.8055 69.8275L61.7881 69.7582Z" fill="#E2D6D6"/>
<path d="M18.9094 32.5962C14.2517 48.1886 13.4318 71.2654 32.5336 77.641C35.8148 78.7592 39.3532 78.9024 42.7152 78.0531C46.0771 77.2037 49.1165 75.3987 51.4609 72.8593C57.1827 66.4491 55.2115 57.9599 51.5656 51.0299C51.1295 50.2329 49.5769 51.0299 50.0305 51.8268C53.7461 58.8954 55.4732 67.7658 48.5651 73.5696C42.3025 78.7671 33.5454 77.8142 27.3177 73.1192C14.7925 63.6424 16.5893 46.1789 20.5492 32.9773C20.8457 31.9898 19.1711 31.8165 18.9094 32.6828V32.5962Z" fill="#E2D6D6"/>
<path d="M23.3229 39.145C23.7764 34.8138 24.2649 29.5989 27.9631 26.6364C33.5803 22.1146 38.1158 27.6066 41.0465 31.8339C45.617 38.4347 49.228 46.2829 45.3379 54.0964C44.8669 55.032 46.559 55.2918 46.9951 54.4429C48.1586 51.948 48.7526 49.2286 48.7345 46.4791C48.7164 43.7297 48.0867 41.0182 46.8905 38.5386C44.9367 33.9302 41.5698 27.9877 37.3134 25.0425C35.9468 24.0372 34.2993 23.4788 32.5991 23.4447C30.8988 23.4105 29.2299 23.9023 27.8235 24.8519C22.9565 27.9531 22.1367 33.9475 21.5959 39.197C21.4912 40.2191 23.2182 40.1152 23.3403 39.197L23.3229 39.145Z" fill="#E2D6D6"/>
<path d="M27.0734 45.5032C27.0734 54.0271 29.4459 64.8379 39.808 65.5482C40.0116 65.5482 40.2068 65.4679 40.3507 65.3249C40.4947 65.182 40.5756 64.9881 40.5756 64.7859C40.5756 64.5837 40.4947 64.3898 40.3507 64.2469C40.2068 64.1039 40.0116 64.0236 39.808 64.0236C30.4228 63.3999 28.6958 52.8663 28.7307 45.4513C28.7307 44.4291 26.9862 44.5504 26.9862 45.4513L27.0734 45.5032Z" fill="#E2D6D6"/>
<path d="M20.9853 22.9808C23.0008 18.5911 23.6097 13.6924 22.7298 8.94762C22.5728 7.99475 20.8806 8.42787 20.9853 9.39807C21.7707 13.8837 21.1622 18.5005 19.2408 22.6343C18.8047 23.6045 20.4969 23.8471 20.8806 22.9808H20.9853Z" fill="#E2D6D6"/>
<path d="M34.8014 92.3845C36.4101 95.6168 37.247 99.1739 37.247 102.779C37.247 106.385 36.4101 109.942 34.8014 113.174C34.3478 114.11 36.0574 114.301 36.4411 113.486C38.1279 110.086 39.0051 106.345 39.0051 102.554C39.0051 98.7633 38.1279 95.023 36.4411 91.6222C36.0399 90.808 34.47 91.5356 34.9061 92.4365L34.8014 92.3845Z" fill="#E2D6D6"/>
<path d="M42.5991 88.8156C42.929 94.3135 44.3083 99.699 46.6637 104.685C47.1347 105.69 48.6349 104.824 48.1639 103.819C45.942 99.1044 44.6454 94.0124 44.3435 88.8156C44.3435 87.7241 42.5991 87.7241 42.5991 88.8156Z" fill="#E2D6D6"/>
<path d="M46.8905 86.2169C50.5766 92.4239 56.1805 97.2846 62.8697 100.077C63.864 100.493 64.7711 99.0373 63.7419 98.6042C57.3276 95.9663 51.9473 91.3342 48.4081 85.4026C47.8499 84.4844 46.3322 85.4026 46.8905 86.2688V86.2169Z" fill="#E2D6D6"/>
<path d="M52.2808 85.8704L58.8748 90.8946C59.6424 91.501 60.9682 90.4095 60.1134 89.7511L53.5368 84.7269C52.7518 84.1379 51.426 85.212 52.2808 85.8704Z" fill="#E2D6D6"/>
<path d="M43.1573 88.3132L51.5307 98.5176C52.1587 99.2799 53.7113 98.5176 53.0484 97.7033L44.675 87.4816C44.047 86.7193 42.4944 87.4816 43.1573 88.3132Z" fill="#E2D6D6"/>
<path d="M37.9763 92.8696C39.9034 96.6748 41.3506 100.701 42.2851 104.858C42.477 105.759 44.1691 105.309 44.0296 104.408C43.0686 100.126 41.5682 95.9818 39.5638 92.0727C39.1625 91.2757 37.5925 92.0727 38.0461 92.8696H37.9763Z" fill="#E2D6D6"/>
</svg>
