<svg width="198" height="220" viewBox="0 0 198 220" fill="none" xmlns="http://www.w3.org/2000/svg">
<path d="M17.2013 126.986C13.7674 75.5598 46.6428 23.6255 96.7441 8.70638C145.382 -5.81716 199.93 17.1832 226.219 60.1887C227.683 62.6187 232.806 60.1886 231.117 57.5891C217.257 35.2742 196.601 18.0387 172.214 8.43924C147.826 -1.16026 121.006 -2.61234 95.7309 4.29846C43.6593 19.8392 8.25063 73.3559 11.7971 127.268C11.7971 130.433 17.4265 129.868 17.4265 126.986H17.2013Z" fill="#E2D6D6"/>
<path d="M12.3599 131.45C93.2709 130.141 172.293 106.694 240.912 63.6357C241.211 63.4664 241.472 63.2379 241.681 62.964C241.889 62.6901 242.04 62.3765 242.124 62.0424C242.208 61.7082 242.223 61.3605 242.169 61.0202C242.115 60.6799 241.992 60.3542 241.809 60.0629C241.626 59.7715 241.385 59.5207 241.102 59.3254C240.82 59.1302 240.5 58.9946 240.164 58.9271C239.827 58.8595 239.48 58.8615 239.144 58.9326C238.809 59.0037 238.491 59.1425 238.21 59.3408C170.518 101.993 92.4951 125.249 12.5851 126.59C9.0949 126.59 8.70084 131.733 12.5851 131.676L12.3599 131.45Z" fill="#E2D6D6"/>
<path d="M29.0791 195.308C65.2153 192.062 101.002 185.671 136.037 176.207C170.883 166.657 202.857 151.851 236.465 139.136C238.707 138.078 241.07 137.3 243.501 136.819L254.76 152.642C254.366 158.745 239.167 162.531 234.382 163.944C225.656 166.713 216.706 169.03 207.924 171.63L91.3398 205.537C83.1209 207.911 74.8458 210.849 66.4581 212.601C53.1165 215.37 26.3208 213.505 32.3442 191.918C33.3575 188.47 27.897 187.058 26.7149 190.505C22.6617 205.028 33.9204 217.178 47.9375 219.439C68.5972 222.773 94.3234 210.397 113.745 204.746L198.523 180.22C210.851 176.603 223.292 173.212 235.564 169.426C243.646 167.878 251.123 164.057 257.124 158.406C265.005 149.308 263.655 134.162 250.707 131.224C243.595 130.597 236.463 132.175 230.272 135.745C216.312 141.735 202.52 148.064 188.277 153.433C137.072 172.661 83.5283 184.901 29.0791 189.827C25.5326 190.109 25.3637 195.478 29.0791 195.478V195.308Z" fill="#E2D6D6"/>
<path d="M0.707462 134.784C-5.65371 164.057 32.6259 174.682 45.7423 149.647L40.6196 150.494C44.0633 155.052 48.7416 158.517 54.0953 160.477C59.449 162.436 65.2515 162.806 70.809 161.542C76.3665 160.278 81.4439 157.435 85.4342 153.351C89.4245 149.267 92.1588 144.116 93.3103 138.514L88.1875 139.305C90.5524 144.067 94.5734 147.793 99.4899 149.78C104.406 151.767 109.878 151.876 114.869 150.088C119.861 148.299 124.026 144.737 126.578 140.073C129.13 135.41 129.892 129.97 128.719 124.782L123.09 126.194C124.581 131.835 128.128 136.707 133.028 139.847C137.928 142.987 143.824 144.165 149.548 143.148C164.071 140.605 171.558 126.194 170.995 112.293L165.366 112.575C165.325 116.46 166.146 120.305 167.77 123.832C169.394 127.359 171.779 130.478 174.754 132.963C177.728 135.449 181.217 137.238 184.966 138.202C188.715 139.165 192.631 139.278 196.429 138.533C200.228 137.787 203.813 136.202 206.925 133.892C210.037 131.582 212.597 128.606 214.42 125.178C216.243 121.751 217.283 117.96 217.464 114.079C217.645 110.198 216.963 106.325 215.467 102.742C214.567 100.312 209.838 100.934 209.838 103.646C209.838 120.995 230.216 128.85 243.614 118.791C263.204 103.703 252.452 77.5943 239.786 62.2796C237.985 60.0191 232.862 62.2795 234.889 64.8225C242.512 72.7173 247.356 82.8981 248.681 93.8131C249.136 97.5203 248.687 101.283 247.373 104.778C246.059 108.272 243.919 111.394 241.137 113.875C231.286 122.126 215.467 117.774 215.636 103.364L210.007 104.211C212.878 112.462 211.583 124.838 203.364 130.15C200.164 132.126 196.5 133.217 192.744 133.31C188.988 133.404 185.275 132.498 181.981 130.684C178.687 128.869 175.93 126.212 173.991 122.982C172.051 119.752 170.998 116.064 170.939 112.293C170.939 109.184 165.31 109.636 165.31 112.575C165.78 116.699 165.252 120.876 163.773 124.752C162.293 128.627 159.904 132.088 156.809 134.841C154.463 136.723 151.68 137.979 148.719 138.49C145.759 139.001 142.718 138.751 139.879 137.764C137.041 136.776 134.498 135.084 132.487 132.843C130.477 130.603 129.064 127.888 128.381 124.951C127.593 122.013 122.414 123.425 122.752 126.364C124.61 137.101 120.782 141.113 110.536 143.6C101.304 145.86 97.3072 145.521 92.5223 136.875C92.1806 136.492 91.7479 136.201 91.2644 136.031C90.7809 135.86 90.2623 135.815 89.7567 135.899C89.2512 135.984 88.775 136.195 88.3727 136.514C87.9705 136.833 87.6552 137.249 87.4559 137.723C86.6722 142.325 84.563 146.597 81.3886 150.009C78.2142 153.422 74.1137 155.827 69.5934 156.927C65.073 158.027 60.3307 157.774 55.9521 156.199C51.5734 154.624 47.75 151.796 44.9541 148.064C44.6094 147.693 44.1793 147.411 43.7012 147.245C43.2232 147.079 42.7119 147.033 42.2119 147.111C41.712 147.189 41.2388 147.389 40.8336 147.693C40.4285 147.997 40.1036 148.396 39.8877 148.856C28.0098 171.46 1.15772 155.637 5.7175 134.728C6.39302 131.733 0.763667 132.128 0.0881439 134.728L0.707462 134.784Z" fill="#E2D6D6"/>
<path d="M30.036 187.623C27.2213 165.583 57.7887 176.998 66.2327 178.072C71.7889 179.092 77.5208 178.464 82.7267 176.264C85.8468 174.632 88.6347 172.428 90.9457 169.765C92.916 167.674 94.3796 164.962 96.5751 162.984C102.645 157.631 110.579 154.908 118.642 155.411C123.906 156.1 129.231 156.195 134.517 155.694C144.698 153.244 154.749 150.283 164.634 146.821C184.655 141.138 205.072 136.963 225.713 134.332C228.978 133.937 229.709 129.246 226.05 129.698C203.187 132.583 180.596 137.326 158.498 143.883C151.799 145.861 145.213 148.516 138.457 150.155C131.102 151.457 123.577 151.457 116.221 150.155C110.508 148.991 104.567 150.062 99.6148 153.15C92.184 158.237 89.0316 165.753 80.8128 170.104C68.3719 176.998 58.5769 169.482 45.5167 169.369C33.8077 169.369 22.9993 176.377 24.7444 189.035C25.1385 191.974 30.3738 190.561 30.3738 187.566L30.036 187.623Z" fill="#E2D6D6"/>
<path d="M39.0428 101.555C42.5282 88.8006 48.7334 76.9589 57.2288 66.8499C65.7241 56.7408 76.3064 48.6062 88.2433 43.0091C91.5646 41.4268 88.6373 37.358 85.5975 38.8273C73.0341 44.7374 61.8946 53.3084 52.9447 63.9513C43.9949 74.5943 37.447 87.0566 33.7512 100.482C32.7942 103.816 38.1984 104.55 39.0428 101.555Z" fill="#E2D6D6"/>
<path d="M109.635 27.6943L130.183 30.1243C133.391 30.5199 135.418 25.6599 131.815 25.2078L111.268 22.7776C108.059 22.3821 106.033 27.2422 109.635 27.6943Z" fill="#E2D6D6"/>
</svg>
